# xmcd
# Track frame offsets:
# 300
# 21255
# 45578
# 73241
# 98216
# 123117
# 143531
# 161308
#
# Disc length: 2433 seconds
# Revision: 0
# Processed by: cddbd v1.5.2PL0 Copyright (c) Steve Scherf et al.
# Submitted via: VisiTrax 2.10.2.252 - For more info visit www.synapsa.com
#
DISCID=63097d08
DTITLE=Crawfish Cook - Live at Big Ben
DYEAR=2006
DGENRE=Blues
TTITLE0=White lines
TTITLE1=Congo square
TTITLE2=Viva Lamoney
TTITLE3=Junko partne
TTITLE4=Hey pocky away
TTITLE5=No more okey doke
TTITLE6=Right place wrong time
TTITLE7=Qualthte
EXTD=
EXTT0=
EXTT1=
EXTT2=
EXTT3=
EXTT4=
EXTT5=
EXTT6=
EXTT7=
PLAYORDER=
